<?xml version="1.0" encoding="utf-8"?>
<!-- Generator: Adobe Illustrator 24.1.2, SVG Export Plug-In . SVG Version: 6.00 Build 0)  -->
<svg version="1.1" xmlns="http://www.w3.org/2000/svg" xmlns:xlink="http://www.w3.org/1999/xlink" x="0px" y="0px"
	 viewBox="0 0 1920 1920" style="enable-background:new 0 0 1920 1920;" xml:space="preserve">
<style type="text/css">
	.st0{fill:#F4F3F8;}
	.st1{stroke:#000000;stroke-miterlimit:10;}
	.st2{fill:#FFFFFF;stroke:#000000;stroke-miterlimit:10;}
	.st3{fill:#FFFFFF;}
</style>
<g id="Слой_1">
</g>
<g id="Слой_2">
</g>
<g id="Слой_3">
</g>
<g id="Слой_4">
</g>
<g id="Слой_5">
</g>
<g id="Слой_6">
</g>
<g id="Слой_7">
</g>
<g id="Слой_8">
</g>
<g id="Слой_9">
</g>
<g id="Слой_10">
</g>
<g id="Слой_11">
</g>
<g id="Слой_12">
	<path d="M69,701c1.12-209.89-36.25-276.74-9-441c13.41-80.8,21.09-123.19,58-154c65.07-54.31,155.93-18.34,297-2
		c133.53,15.47,109.34-10.13,405-18c301.58-8.03,270.8,20.1,481,8c263.38-15.16,345.69-61.27,444,5
		c97.72,65.88,126.96,185.96,135,219c26.68,109.57-11.72,148.39-27,319c-7.04,78.66,0.64,191.44,16,417
		c11.8,173.22,22.24,248.47-29,327c-9.08,13.91-48.94,72.14-123,104c-117.45,50.53-227.01-5.64-343-33
		c-194.57-45.9-358.63,4.07-482,34c-137.85,33.44-254.1,61.65-373,154c-93.26,72.44-155.99,159.36-181,144
		c-13.47-8.27-7.16-71.96,6-199c5.02-48.49,7.86-68.72-6-86c-23.59-29.41-63.84-10.73-138-27c-24.83-5.45-111.09-24.37-145-82
		c-22.75-38.66-8.66-72.17,2-149c15.41-111.14-5.35-103.97,0-323C60.45,776.77,68.48,798.52,69,701z"/>
	<path d="M1738.07,141.58c41.48,0,75.21,33.74,75.21,75.21v1129.74c0,41.47-33.73,75.21-75.21,75.21H864.39
		c-100.16,0-198.41,34.46-276.62,97.04L393.23,1674.4l21.55-86.18c10.08-40.3,1.19-82.21-24.38-114.96
		c-25.57-32.75-64.06-51.53-105.61-51.53H181.61c-41.47,0-75.21-33.74-75.21-75.21V216.79c0-41.47,33.74-75.21,75.21-75.21H1738.07z
		 M1738.07,34.9H181.61C81.16,34.9-0.28,116.33-0.28,216.79v1129.74c0,100.45,81.43,181.89,181.89,181.89h103.18
		c17.76,0,30.8,16.7,26.49,33.92l-82.44,329.77c-3.77,15.08,8.25,27.34,21.39,27.34c4.6,0,9.33-1.5,13.58-4.9l390.6-312.49
		c59.6-47.68,133.65-73.65,209.98-73.65h873.68c100.46,0,181.89-81.43,181.89-181.89V216.79
		C1919.96,116.33,1838.53,34.9,1738.07,34.9z"/>
	<path class="st2" d="M980.14,1194.64h-40.6c-27.45,0-49.7-16.96-49.7-37.87V758.37c0-20.92,22.25-37.87,49.7-37.87h40.6
		c27.45,0,49.7,16.96,49.7,37.87v398.39C1029.84,1177.68,1007.6,1194.64,980.14,1194.64z"/>
	<path class="st2" d="M500.08,1194.64h-40.6c-27.45,0-49.7-16.95-49.7-37.87v-777.7c0-20.92,22.25-37.87,49.7-37.87h40.6
		c27.45,0,49.7,16.96,49.7,37.87v777.7C549.78,1177.69,527.53,1194.64,500.08,1194.64z"/>
	<path class="st2" d="M1460.2,1194.65h-40.6c-27.45,0-49.7-16.96-49.7-37.87V568.73c0-20.92,22.25-37.87,49.7-37.87h40.6
		c27.45,0,49.7,16.96,49.7,37.87v588.05C1509.9,1177.69,1487.66,1194.65,1460.2,1194.65z"/>
</g>
<g id="Слой_13">
</g>
<g id="Слой_14">
</g>
</svg>
