<?xml version="1.0" encoding="utf-8"?>
<!-- Generator: Adobe Illustrator 24.1.2, SVG Export Plug-In . SVG Version: 6.00 Build 0)  -->
<svg version="1.1" xmlns="http://www.w3.org/2000/svg" xmlns:xlink="http://www.w3.org/1999/xlink" x="0px" y="0px"
	 viewBox="0 0 1920 1920" style="enable-background:new 0 0 1920 1920;" xml:space="preserve">
<style type="text/css">
	.st0{fill:#F4F3F8;}
	.st1{stroke:#000000;stroke-miterlimit:10;}
	.st2{fill:#FFFFFF;stroke:#000000;stroke-miterlimit:10;}
	.st3{fill:#FFFFFF;}
</style>
<g id="Слой_1">
</g>
<g id="Слой_2">
</g>
<g id="Слой_3">
</g>
<g id="Слой_4">
</g>
<g id="Слой_5">
</g>
<g id="Слой_6">
</g>
<g id="Слой_7">
</g>
<g id="Слой_8">
	<path d="M1493.07,106.67c176.6,0,320.27,143.67,320.27,320.27v1066.13c0,176.6-143.67,320.27-320.27,320.27H426.93
		c-176.6,0-320.27-143.67-320.27-320.27V426.93c0-176.6,143.67-320.27,320.27-320.27H480v500.8c0,88.33,67.97,160.2,151.52,160.2
		c29.19,0,57.64-8.87,82.26-25.67L960,574.09l246.22,167.92c24.62,16.79,53.07,25.66,82.26,25.66c83.55,0,151.52-71.87,151.52-160.2
		v-500.8H1493.07z M1493.07,0h-95.86c-35.27,0-63.87,28.59-63.87,63.87v543.6c0,31.19-21.45,53.53-44.85,53.53
		c-7.4,0-15-2.23-22.17-7.12L999.97,472.24c-12.06-8.22-26.01-12.33-39.97-12.33s-27.92,4.11-39.97,12.33L653.69,653.88
		c-7.17,4.89-14.76,7.12-22.16,7.12c-23.41,0-44.86-22.34-44.86-53.53V63.87C586.67,28.59,558.07,0,522.8,0h-95.87
		C191.14,0,0,191.14,0,426.93v1066.13C0,1728.85,191.14,1920,426.93,1920h1066.13c235.79,0,426.93-191.15,426.93-426.93V426.93
		C1920,191.14,1728.85,0,1493.07,0z"/>
</g>
<g id="Слой_9">
</g>
<g id="Слой_10">
</g>
<g id="Слой_11">
</g>
<g id="Слой_12">
</g>
<g id="Слой_13">
</g>
<g id="Слой_14">
</g>
</svg>
