<?xml version="1.0" encoding="utf-8"?>
<!-- Generator: Adobe Illustrator 24.1.2, SVG Export Plug-In . SVG Version: 6.00 Build 0)  -->
<svg version="1.1" xmlns="http://www.w3.org/2000/svg" xmlns:xlink="http://www.w3.org/1999/xlink" x="0px" y="0px"
	 viewBox="0 0 1920 1920" style="enable-background:new 0 0 1920 1920;" xml:space="preserve">
<style type="text/css">
	.st0{fill:#F4F3F8;}
	.st1{stroke:#000000;stroke-miterlimit:10;}
	.st2{fill:#FFFFFF;stroke:#000000;stroke-miterlimit:10;}
	.st3{fill:#FFFFFF;}
</style>
<g id="Слой_1">
</g>
<g id="Слой_2">
</g>
<g id="Слой_3">
</g>
<g id="Слой_4">
</g>
<g id="Слой_5">
</g>
<g id="Слой_6">
	<path d="M959.9,118.34l853.33,572.11v371.67v214.54V1813h-426.67v-482.57c0-88.8-71.84-161.04-160.14-161.04H693.37
		c-88.3,0-160.13,72.25-160.13,161.04V1813H106.57v-536.35v-214.54V690.44L959.9,118.34z M959.9,0.27
		c-10.34,0-20.68,3.01-29.66,9.03L23.71,617.07C8.84,627.05-0.1,643.83-0.1,661.81v400.3v214.54v589.85
		c0,29.69,23.94,53.76,53.47,53.76h533.07c29.53,0,53.47-24.07,53.47-53.76v-536.08c0-29.7,23.94-53.77,53.47-53.77h533.06
		c29.54,0,53.47,24.07,53.47,53.77v536.08c0,29.69,23.94,53.76,53.47,53.76h533.07c29.53,0,53.46-24.07,53.46-53.76v-589.85v-214.54
		v-400.3c0-17.98-8.94-34.77-23.81-44.74L989.56,9.3C980.58,3.28,970.24,0.27,959.9,0.27z"/>
</g>
<g id="Слой_7">
	<path d="M1311.21,1813.4l-0.15-521.9c0-57.67-45.1-104.57-100.55-104.57H708.82c-55.44,0-100.54,46.9-100.54,104.57v521.75
		l-501.84,0.16l-0.15-1172.75L959.62,49L1813,640.55l-0.1,1172.85H1311.21z"/>
</g>
<g id="Слой_8">
</g>
<g id="Слой_9">
</g>
<g id="Слой_10">
</g>
<g id="Слой_11">
</g>
<g id="Слой_12">
</g>
<g id="Слой_13">
</g>
<g id="Слой_14">
</g>
</svg>
