<?xml version="1.0" encoding="utf-8"?>
<!-- Generator: Adobe Illustrator 24.1.2, SVG Export Plug-In . SVG Version: 6.00 Build 0)  -->
<svg version="1.1" xmlns="http://www.w3.org/2000/svg" xmlns:xlink="http://www.w3.org/1999/xlink" x="0px" y="0px"
	 viewBox="0 0 1920 1920" style="enable-background:new 0 0 1920 1920;" xml:space="preserve">
<style type="text/css">
	.st0{fill:#F4F3F8;}
	.st1{stroke:#000000;stroke-miterlimit:10;}
	.st2{fill:#FFFFFF;stroke:#000000;stroke-miterlimit:10;}
	.st3{fill:#FFFFFF;}
</style>
<g id="Слой_1">
</g>
<g id="Слой_2">
</g>
<g id="Слой_3">
</g>
<g id="Слой_4">
</g>
<g id="Слой_5">
	<path d="M960.17,118.84l853.33,572.11v371.67v214.54v536.35h-426.67v-482.57c0-88.8-71.84-161.04-160.14-161.04H693.63
		c-88.3,0-160.13,72.25-160.13,161.04v482.57H106.83v-536.35v-214.54V690.95L960.17,118.84z M960.17,0.77
		c-10.34,0-20.68,3.01-29.66,9.03L23.98,617.58C9.1,627.55,0.17,644.34,0.17,662.31v400.3v214.54v589.85
		c0,29.69,23.94,53.76,53.47,53.76H586.7c29.53,0,53.47-24.07,53.47-53.76v-536.08c0-29.7,23.94-53.77,53.47-53.77h533.06
		c29.54,0,53.47,24.07,53.47,53.77v536.08c0,29.69,23.94,53.76,53.47,53.76h533.07c29.53,0,53.46-24.07,53.46-53.76v-589.85v-214.54
		v-400.3c0-17.98-8.94-34.77-23.81-44.74L989.82,9.8C980.84,3.78,970.51,0.77,960.17,0.77z"/>
</g>
<g id="Слой_6">
</g>
<g id="Слой_7">
</g>
<g id="Слой_8">
</g>
<g id="Слой_9">
</g>
<g id="Слой_10">
</g>
<g id="Слой_11">
</g>
<g id="Слой_12">
</g>
<g id="Слой_13">
</g>
<g id="Слой_14">
</g>
</svg>
