<?xml version="1.0" encoding="utf-8"?>
<!-- Generator: Adobe Illustrator 24.1.2, SVG Export Plug-In . SVG Version: 6.00 Build 0)  -->
<svg version="1.1" xmlns="http://www.w3.org/2000/svg" xmlns:xlink="http://www.w3.org/1999/xlink" x="0px" y="0px"
	 viewBox="0 0 1920 1920" style="enable-background:new 0 0 1920 1920;" xml:space="preserve">
<style type="text/css">
	.st0{fill:#F4F3F8;}
	.st1{stroke:#000000;stroke-miterlimit:10;}
	.st2{fill:#FFFFFF;stroke:#000000;stroke-miterlimit:10;}
	.st3{fill:#FFFFFF;}
</style>
<g id="Слой_1">
	<circle class="st0" cx="960" cy="960" r="960"/>
</g>
<g id="Слой_2">
	<g transform="translate(0.000000,1280.000000) scale(0.100000,-0.100000)">
		<path d="M9508.03,9581.07c-47-18-85-41-144-91c-10-8-32-41-48-72l-29-57v-924c0-913,0-924,21-966c53-110,174-191,284-191
			c158,0,283,105,323,273c17,67,17,1697,1,1764c-29,119-90,201-183,246C9657.03,9600.07,9578.03,9606.07,9508.03,9581.07z"/>
		<path d="M5952.02,8424.07c-65-17-171-99-200-154c-27-53-45-115-45-160c0-46,28-137,52-170c7-9,38-52,68-95c76-107,94-132,518-713
			c199-273,290-398,359-497c51-72,88-113,125-138c55-38,133-67,181-67c79,0,202,63,255,130c72,92,88,230,39,328c-15,30-48,81-74,115
			c-72,95-93,123-181,247c-46,63-91,126-102,140c-39,52-366,502-493,680c-174,243-213,289-276,323c-42,23-68,30-129,32
			C6007.02,8427.07,5963.02,8427.07,5952.02,8424.07z"/>
		<path d="M13072.03,8423.07c-62-17-130-80-224-207c-91-124-222-303-266-366c-11-16-67-93-125-172c-58-78-113-154-122-168
			c-10-14-34-48-55-76c-21-29-90-123-152-210c-63-88-137-188-165-224c-71-94-96-155-96-240c0-39,4-78,9-88c5-9,15-30,22-46
			c8-16,35-53,61-81c104-115,265-134,400-50c44,28,74,60,144,158c134,185,431,595,615,847c90,124,172,236,181,250
			c10,14,43,59,73,100c83,113,115,186,115,264c0,115-64,221-170,284c-38,22-57,27-135,29
			C13133.03,8428.07,13083.03,8426.07,13072.03,8423.07z"/>
		<path d="M9282.03,6540.07c-143-13-269-30-315-44c-25-8-67-17-95-21c-91-12-380-100-510-156c-11-4-49-20-85-35
			c-550-224-1118-694-1461-1209c-60-90-149-234-149-241c0-3-17-35-38-72c-39-68-118-241-165-362c-45-115-117-341-117-367
			c0-9-4-30-9-47c-24-77-33-116-42-181c-5-38-14-99-20-135c-43-286-43-654,0-940c6-36,15-96,20-135c9-65,18-104,42-181
			c5-17,9-38,9-47c0-26,72-251,117-367c51-129,76-187,144-321c67-136,91-176,198-339c183-279,473-590,740-794
			c149-113,188-140,336-229c225-134,447-235,680-310c173-56,218-67,302-81c43-7,87-17,98-23s52-14,90-18c39-3,95-10,125-15
			s143-14,250-20c159-9,231-8,395,4c257,20,359,32,415,50c25,8,68,17,95,21c102,14,392,104,532,166c24,11,45,19,47,19
			c16,0,310,149,396,200c517,310,978,790,1245,1295c21,39,43,81,51,95c18,33,71,152,96,215c11,28,26,64,33,80c20,43,54,142,70,200
			c8,28,20,70,28,95c30,91,56,216,88,415c26,166,32,261,32,495s-6,329-32,495c-6,33-16,98-23,145c-8,47-16,90-20,95
			c-3,6-13,46-22,90s-22,96-30,115c-7,19-28,80-45,135c-18,55-38,114-46,130c-7,17-28,66-45,110c-18,44-64,141-102,215
			c-375,730-1020,1310-1783,1603c-130,50-279,97-305,97c-9,0-20,4-25,9c-6,6-50,17-100,26c-49,9-112,23-140,31c-51,14-166,30-330,44
			C9794.03,6550.07,9394.03,6549.07,9282.03,6540.07z"/>
		<path d="M15322.03,5396.07c-5-2-30-9-55-16c-51-14-95-28-125-40c-21-8-142-47-235-74c-30-9-64-21-75-26c-11-4-60-21-110-35
			c-49-15-99-31-110-36s-58-20-105-35c-47-14-193-62-324-105c-132-44-247-79-256-79s-20-4-25-8c-6-5-64-26-130-47
			c-179-58-246-112-285-232c-30-92-27-136,18-246c20-48,99-122,159-148c87-38,162-31,358,34c94,30,224,72,290,93
			c66,20,125,41,130,44c6,4,26,11,45,14c19,4,58,16,85,26c44,16,369,122,465,151c19,6,44,14,55,19c37,17,116,40,133,40
			c10,0,22,4,27,8c6,5,69,28,141,51c159,52,212,88,266,181c36,61,38,70,38,151c0,80-2,89-35,145c-64,107-150,162-264,170
			C15362.03,5398.07,15328.03,5398.07,15322.03,5396.07z"/>
		<path d="M3715.02,5371.07c-120-47-209-170-212-291c-2-99,56-213,136-267c43-29,175-83,204-83c8,0,34-9,56-20c23-11,49-20,57-20
			c9-1,54-14,101-31s117-39,155-50c67-19,107-32,150-49c11-4,94-31,185-60s174-56,185-60c34-14,135-47,260-85c66-20,149-47,185-60
			c130-47,180-58,259-53c95,5,157,34,215,99c117,131,113,313-9,434c-58,58-87,73-210,111c-49,15-94,31-100,36c-5,4-17,8-27,8
			s-26,4-36,10c-9,5-44,16-77,25s-82,24-110,34c-27,11-88,31-135,45c-47,15-94,31-105,35c-11,5-60,21-110,37c-49,15-175,55-280,89
			c-104,34-264,85-355,114s-175,57-188,62C3871.02,5396.07,3765.02,5390.07,3715.02,5371.07z"/>
		<path d="M13702.03,2151.07c-69-18-161-94-193-159c-25-50-46-145-39-173c22-92,31-116,56-153c30-43,88-93,131-113
			c14-6,63-23,110-37c47-15,108-35,135-46c28-10,77-26,110-35s69-21,80-26c11-4,45-16,75-25s154-49,275-89s308-100,415-135
			c107-34,255-82,329-106c169-55,236-59,326-15c65,31,121,82,151,136c10,19,22,35,26,35c5,0,8,48,8,108v107l-40,62
			c-50,80-113,125-220,159c-47,15-107,35-135,44c-27,10-124,41-215,70c-217,69-238,75-285,93c-22,9-67,23-100,32s-69,21-80,26
			c-11,4-45,16-75,25s-113,36-185,60c-71,23-182,59-245,79c-63,19-124,39-135,44c-62,25-98,33-170,36
			C13768.03,2157.07,13719.03,2156.07,13702.03,2151.07z"/>
		<path d="M5177.02,2094.07c-85-29-173-57-195-63c-22-5-85-25-140-44s-125-42-155-51s-64-21-75-26c-11-4-108-36-215-70
			c-213-68-245-78-275-90c-11-4-47-16-80-25s-82-25-110-35c-27-10-88-31-135-46c-120-38-146-53-196-107c-126-134-125-315,1-443
			c65-64,125-89,220-89c78,0,116,8,220,45c28,10,158,53,290,95s262,85,289,96c27,10,54,19,60,19c13,0,161,46,191,60
			c11,5,108,37,215,71c478,152,479,152,538,204c72,64,115,154,116,241c0,115-77,234-187,289c-43,21-64,25-136,24
			C5342.02,2148.07,5314.02,2142.07,5177.02,2094.07z"/>
		<path d="M12118.03-45.93c-62-17-92-34-144-83c-41-38-87-117-87-150c0-11-4-23-10-26c-5-3-10-22-10-42c0-78,40-163,139-296
			c38-51,148-202,245-337c249-343,314-433,371-511c28-38,106-146,175-241c193-267,225-292,376-292c76-1,97,3,137,23
			c63,32,134,103,156,154c37,87,45,135,31,180c-25,84-34,103-89,180c-31,44-74,104-96,135c-22,32-72,100-111,152
			c-68,92-196,268-241,333c-33,48-336,464-383,527c-23,30-65,89-95,130c-62,88-123,135-208,161
			C12202.03-26.93,12190.03-26.93,12118.03-45.93z"/>
		<path d="M6920.02-60.93c-34-12-80-37-102-55c-33-29-140-168-265-347c-16-23-59-82-96-132c-36-49-95-130-131-180
			c-246-338-308-423-341-470c-21-30-79-109-129-177c-117-158-132-190-132-294c-1-68,3-89,26-135c33-66,73-110,134-146
			c40-23,61-28,140-31c85-4,98-2,145,22c29,14,64,36,78,49c30,27,196,248,375,502c17,23,50,70,75,104s87,119,138,189
			s125,172,165,227c363,497,332,443,332,566c0,82-3,102-25,144C7233.02-79.93,7068.02-9.93,6920.02-60.93z"/>
		<path d="M9512.03-896.93c-63-22-129-72-163-122c-65-96-62-48-62-1014c0-795,2-883,17-930c30-95,84-156,183-208c64-33,176-34,242-1
			c75,38,134,96,168,167l30,63v901v900l-25,58c-46,104-90,145-198,184C9644.03-876.93,9570.03-875.93,9512.03-896.93z"/>
	</g>
</g>
<g id="Слой_3">
</g>
<g id="Слой_4">
</g>
<g id="Слой_5">
</g>
<g id="Слой_6">
</g>
<g id="Слой_7">
</g>
<g id="Слой_8">
</g>
<g id="Слой_9">
</g>
<g id="Слой_10">
</g>
<g id="Слой_11">
</g>
<g id="Слой_12">
</g>
<g id="Слой_13">
</g>
<g id="Слой_14">
</g>
</svg>
