<?xml version="1.0" encoding="utf-8"?>
<!-- Generator: Adobe Illustrator 24.1.2, SVG Export Plug-In . SVG Version: 6.00 Build 0)  -->
<svg version="1.1" xmlns="http://www.w3.org/2000/svg" xmlns:xlink="http://www.w3.org/1999/xlink" x="0px" y="0px"
	 viewBox="0 0 1920 1920" style="enable-background:new 0 0 1920 1920;" xml:space="preserve">
<style type="text/css">
	.st0{fill:#F4F3F8;}
	.st1{stroke:#000000;stroke-miterlimit:10;}
	.st2{fill:#FFFFFF;stroke:#000000;stroke-miterlimit:10;}
	.st3{fill:#FFFFFF;}
</style>
<g id="Слой_1">
</g>
<g id="Слой_2">
</g>
<g id="Слой_3">
</g>
<g id="Слой_4">
</g>
<g id="Слой_5">
</g>
<g id="Слой_6">
</g>
<g id="Слой_7">
</g>
<g id="Слой_8">
</g>
<g id="Слой_9">
</g>
<g id="Слой_10">
</g>
<g id="Слой_11">
</g>
<g id="Слой_12">
</g>
<g id="Слой_13">
	<path d="M1738.13,199.25c41.46,0,75.2,30.76,75.2,68.56v1029.9c0,37.8-33.74,68.56-75.2,68.56H864.56
		c-100.15,0-198.38,31.41-276.59,88.46l-194.52,141.87l21.54-78.56c10.08-36.74,1.19-74.94-24.37-104.8
		c-25.56-29.85-64.05-46.97-105.6-46.97H181.87c-41.47,0-75.2-30.76-75.2-68.56V267.82c0-37.81,33.73-68.56,75.2-68.56H1738.13z
		 M1738.13,102H181.87C81.43,102,0,176.24,0,267.82v1029.9c0,91.58,81.43,165.82,181.87,165.82h103.17
		c17.76,0,30.79,15.22,26.49,30.93l-82.43,300.63c-3.77,13.75,8.25,24.92,21.39,24.92c4.6,0,9.33-1.36,13.58-4.45l390.55-284.87
		c59.59-43.46,133.64-67.14,209.95-67.14h873.57c100.44,0,181.87-74.23,181.87-165.82V267.82C1920,176.24,1838.57,102,1738.13,102z"
		/>
	<path d="M902.71,853.62c10-31.53,22.08-58.12,36.25-79.78c14.17-21.65,32.71-46.54,55.62-74.65
		c16.67-20.89,29.79-38.08,39.37-51.57c9.59-13.49,17.5-28.49,23.75-45.02c6.25-16.53,9.38-34.29,9.38-53.28v-0.57
		c0-33.05-9.38-58.69-27.91-76.93c-18.55-18.23-44.37-27.35-77.71-27.35c-33.75,0-60,11.3-78.55,33.91
		c-18.54,22.6-27.92,54.61-28.33,96.02v0.57H725.21v-0.57c1.67-50.15,12.08-92.98,31.25-128.5c19.17-35.52,46.04-62.59,80.63-81.2
		c34.58-18.62,75.62-27.92,123.13-27.92c49.58,0,92.07,8.36,127.5,25.07c35.41,16.71,62.28,40.93,80.83,72.65
		c18.54,31.72,27.91,70,27.91,114.82v0.57c0,26.97-3.96,51.28-11.67,72.94c-7.7,21.65-17.08,40.46-28.12,56.41
		c-11.05,15.96-26.05,35.33-45.22,58.12c-20.83,24.31-37.71,45.87-50.62,64.68c-12.92,18.8-23.74,41.41-32.5,67.81
		c-8.75,26.4-13.12,56.89-13.12,91.46h-127.5C887.71,921.05,892.71,885.15,902.71,853.62z M884.58,1051.92h133.75v121.94H884.58
		V1051.92z"/>
</g>
<g id="Слой_14">
</g>
</svg>
