<?xml version="1.0" encoding="utf-8"?>
<!-- Generator: Adobe Illustrator 24.1.2, SVG Export Plug-In . SVG Version: 6.00 Build 0)  -->
<svg version="1.1" xmlns="http://www.w3.org/2000/svg" xmlns:xlink="http://www.w3.org/1999/xlink" x="0px" y="0px"
	 viewBox="0 0 1920 1920" style="enable-background:new 0 0 1920 1920;" xml:space="preserve">
<style type="text/css">
	.st0{fill:#F4F3F8;}
	.st1{stroke:#000000;stroke-miterlimit:10;}
	.st2{fill:#FFFFFF;stroke:#000000;stroke-miterlimit:10;}
	.st3{fill:#FFFFFF;}
</style>
<g id="Слой_1">
</g>
<g id="Слой_2">
</g>
<g id="Слой_3">
</g>
<g id="Слой_4">
</g>
<g id="Слой_5">
</g>
<g id="Слой_6">
</g>
<g id="Слой_7">
</g>
<g id="Слой_8">
</g>
<g id="Слой_9">
</g>
<g id="Слой_10">
</g>
<g id="Слой_11">
</g>
<g id="Слой_12">
</g>
<g id="Слой_13">
</g>
<g id="Слой_14">
	<path d="M61,410v488l19,432l105,75l110,23c0,0,49,90,50,96s17,120,17,120l134-72l198-108l124-50c0,0,230,5,237,7s248,5,248,5
		s220-9,261-7s160,0,160,0l91-29l79-788l-46-361l-93-110h-679H512l-258,21L87,181L61,410z"/>
	<path d="M1739.81,199.25c41.46,0,75.2,30.76,75.2,68.56v1029.9c0,37.8-33.74,68.56-75.2,68.56H866.24
		c-100.15,0-198.38,31.41-276.59,88.46l-194.52,141.87l21.54-78.56c10.08-36.74,1.19-74.94-24.37-104.8
		c-25.56-29.85-64.05-46.97-105.6-46.97H183.54c-41.47,0-75.2-30.76-75.2-68.56V267.82c0-37.81,33.73-68.56,75.2-68.56H1739.81z
		 M1739.81,102H183.54C83.1,102,1.68,176.24,1.68,267.82v1029.9c0,91.58,81.43,165.82,181.87,165.82h103.17
		c17.76,0,30.79,15.22,26.49,30.93l-82.43,300.63c-3.77,13.75,8.25,24.92,21.39,24.92c4.6,0,9.33-1.36,13.58-4.45l390.55-284.87
		c59.59-43.46,133.64-67.14,209.95-67.14h873.57c100.44,0,181.87-74.23,181.87-165.82V267.82
		C1921.68,176.24,1840.25,102,1739.81,102z"/>
	<path class="st3" d="M904.38,854.47c10-31.53,22.08-58.12,36.25-79.78c14.17-21.65,32.71-46.54,55.62-74.65
		c16.67-20.89,29.79-38.08,39.37-51.57c9.59-13.49,17.5-28.49,23.75-45.02c6.25-16.53,9.38-34.29,9.38-53.28v-0.57
		c0-33.05-9.38-58.69-27.91-76.93c-18.55-18.23-44.37-27.35-77.71-27.35c-33.75,0-60,11.3-78.55,33.91s-27.92,54.61-28.33,96.02
		v0.57H726.88v-0.57c1.67-50.15,12.08-92.98,31.25-128.5s46.04-62.59,80.63-81.2s75.62-27.92,123.13-27.92
		c49.58,0,92.07,8.36,127.5,25.07c35.41,16.71,62.28,40.93,80.83,72.65c18.54,31.72,27.91,70,27.91,114.82v0.57
		c0,26.97-3.96,51.29-11.67,72.94c-7.7,21.65-17.08,40.46-28.12,56.41c-11.05,15.96-26.05,35.33-45.22,58.12
		c-20.83,24.31-37.71,45.87-50.62,64.68c-12.92,18.8-23.74,41.41-32.5,67.81c-8.75,26.4-13.12,56.89-13.12,91.46h-127.5
		C889.39,921.91,894.38,886.01,904.38,854.47z M886.26,1052.78h133.75v121.94H886.26V1052.78z"/>
</g>
</svg>
