<?xml version="1.0" encoding="utf-8"?>
<!-- Generator: Adobe Illustrator 24.1.2, SVG Export Plug-In . SVG Version: 6.00 Build 0)  -->
<svg version="1.1" xmlns="http://www.w3.org/2000/svg" xmlns:xlink="http://www.w3.org/1999/xlink" x="0px" y="0px"
	 viewBox="0 0 1920 1920" style="enable-background:new 0 0 1920 1920;" xml:space="preserve">
<style type="text/css">
	.st0{fill:#F4F3F8;}
	.st1{stroke:#000000;stroke-miterlimit:10;}
	.st2{fill:#FFFFFF;stroke:#000000;stroke-miterlimit:10;}
	.st3{fill:#FFFFFF;}
</style>
<g id="Слой_1">
</g>
<g id="Слой_2">
</g>
<g id="Слой_3">
</g>
<g id="Слой_4">
</g>
<g id="Слой_5">
</g>
<g id="Слой_6">
</g>
<g id="Слой_7">
</g>
<g id="Слой_8">
</g>
<g id="Слой_9">
</g>
<g id="Слой_10">
</g>
<g id="Слой_11">
	<path d="M1738.11,141.9c41.48,0,75.21,33.74,75.21,75.21v1129.74c0,41.47-33.73,75.21-75.21,75.21H864.43
		c-100.16,0-198.41,34.46-276.62,97.04l-194.54,155.62l21.55-86.18c10.08-40.3,1.19-82.21-24.38-114.96
		c-25.57-32.75-64.06-51.53-105.61-51.53H181.65c-41.47,0-75.21-33.74-75.21-75.21V217.11c0-41.47,33.74-75.21,75.21-75.21H1738.11z
		 M1738.11,35.22H181.65C81.19,35.22-0.24,116.66-0.24,217.11v1129.74c0,100.45,81.43,181.89,181.89,181.89h103.18
		c17.76,0,30.8,16.7,26.49,33.92l-82.44,329.77c-3.77,15.08,8.25,27.34,21.39,27.34c4.6,0,9.33-1.5,13.58-4.9l390.6-312.49
		c59.6-47.68,133.65-73.65,209.98-73.65h873.68c100.46,0,181.89-81.43,181.89-181.89V217.11
		C1920,116.66,1838.57,35.22,1738.11,35.22z"/>
	<path class="st1" d="M975.35,1194.96h-30.94c-20.92,0-37.87-16.96-37.87-37.87V758.7c0-20.92,16.96-37.87,37.87-37.87h30.94
		c20.92,0,37.87,16.96,37.87,37.87v398.39C1013.22,1178,996.27,1194.96,975.35,1194.96z"/>
	<path class="st1" d="M495.29,1194.96h-30.94c-20.92,0-37.87-16.95-37.87-37.87v-777.7c0-20.92,16.96-37.87,37.87-37.87h30.94
		c20.92,0,37.87,16.96,37.87,37.87v777.7C533.16,1178.01,516.2,1194.96,495.29,1194.96z"/>
	<path class="st1" d="M1455.41,1194.97h-30.94c-20.92,0-37.87-16.96-37.87-37.87V569.05c0-20.92,16.95-37.87,37.87-37.87h30.94
		c20.92,0,37.87,16.96,37.87,37.87v588.05C1493.28,1178.01,1476.33,1194.97,1455.41,1194.97z"/>
</g>
<g id="Слой_12">
</g>
<g id="Слой_13">
</g>
<g id="Слой_14">
</g>
</svg>
