<?xml version="1.0" encoding="utf-8"?>
<!-- Generator: Adobe Illustrator 24.1.2, SVG Export Plug-In . SVG Version: 6.00 Build 0)  -->
<svg version="1.1" xmlns="http://www.w3.org/2000/svg" xmlns:xlink="http://www.w3.org/1999/xlink" x="0px" y="0px"
	 viewBox="0 0 1920 1920" style="enable-background:new 0 0 1920 1920;" xml:space="preserve">
<style type="text/css">
	.st0{fill:#F4F3F8;}
	.st1{stroke:#000000;stroke-miterlimit:10;}
	.st2{fill:#FFFFFF;stroke:#000000;stroke-miterlimit:10;}
	.st3{fill:#FFFFFF;}
</style>
<g id="Слой_1">
</g>
<g id="Слой_2">
</g>
<g id="Слой_3">
</g>
<g id="Слой_4">
</g>
<g id="Слой_5">
</g>
<g id="Слой_6">
</g>
<g id="Слой_7">
</g>
<g id="Слой_8">
</g>
<g id="Слой_9">
	<path d="M1492.69,106.67c176.6,0,320.27,143.67,320.27,320.27v1066.13c0,176.6-143.67,320.27-320.27,320.27H426.56
		c-176.6,0-320.27-143.67-320.27-320.27V426.93c0-176.6,143.67-320.27,320.27-320.27h53.07v500.8c0,88.33,67.97,160.2,151.52,160.2
		c29.19,0,57.64-8.87,82.26-25.67l246.22-167.92l246.22,167.92c24.62,16.79,53.07,25.66,82.26,25.66
		c83.55,0,151.52-71.87,151.52-160.2v-500.8H1492.69z M1492.69,0h-95.86c-35.27,0-63.87,28.59-63.87,63.87v543.6
		c0,31.19-21.45,53.53-44.85,53.53c-7.4,0-15-2.23-22.17-7.12L999.6,472.24c-12.06-8.22-26.01-12.33-39.97-12.33
		c-13.96,0-27.92,4.11-39.97,12.33L653.31,653.88c-7.17,4.89-14.76,7.12-22.16,7.12c-23.41,0-44.86-22.34-44.86-53.53V63.87
		C586.29,28.59,557.69,0,522.42,0h-95.87C190.77,0-0.38,191.14-0.38,426.93v1066.13c0,235.79,191.14,426.93,426.93,426.93h1066.13
		c235.79,0,426.93-191.15,426.93-426.93V426.93C1919.62,191.14,1728.48,0,1492.69,0z"/>
</g>
<g id="Слой_10">
	<path d="M1834,1441c2.08,172.9-52.94,264.82-90,311c-147.64,183.96-342.01,55.28-1124.46,101.7
		c-151.71,9-372.07,27.34-488.54-109.7c-32.72-38.5-48.68-79.19-57-107c-7-293.33-14-586.67-21-880
		C15.05,433.4,126.81,162.31,318,83c39.98-16.59,104.94-33.7,197-19c0.33,170.67,0.67,341.33,1,512c9,43.33,18,86.67,27,130
		c30.42,17,60.85,34,91.27,51C740.18,691.67,846.09,626.33,952,561c108.4,65.33,216.79,130.67,325.19,196h54.97
		c14.61-10,29.23-20,43.84-30c11-19.67,22-39.33,33-59c1-201.67,2-403.33,3-605c46.01,0.11,202.75,6.25,326,123
		c142.52,135,182.18,362.86,96,571C1834,985,1834,1213,1834,1441z"/>
</g>
<g id="Слой_11">
</g>
<g id="Слой_12">
</g>
<g id="Слой_13">
</g>
<g id="Слой_14">
</g>
</svg>
